<?xml version="1.0" encoding="UTF-8"?>
<svg width="15px" height="15px" viewBox="0 0 15 15" version="1.1" xmlns="http://www.w3.org/2000/svg" xmlns:xlink="http://www.w3.org/1999/xlink">
    <title>Path</title>
    <g id="10-|-Worker-PO" stroke="none" stroke-width="1" fill="none" fill-rule="evenodd">
        <g id="Worker-profile-Copy" transform="translate(-659.000000, -2244.000000)" fill="#DBC927" fill-rule="nonzero">
            <g id="Review-min-worker" transform="translate(468.000000, 2124.000000)">
                <g id="Group-3" transform="translate(53.995413, 110.000000)">
                    <g id="star" transform="translate(137.004587, 10.500000)">
                        <path d="M5.13140633,4.50290091 C5.13140633,4.50290091 2.29332484,4.81047622 0.400073017,5.01611228 C0.229427679,5.03632437 0.0785435315,5.14793026 0.0219615272,5.31753607 C-0.0346204771,5.48714188 0.0219615272,5.66377799 0.147699315,5.77538388 C1.55416628,7.03116991 3.66745924,8.91177319 3.66745924,8.91177319 C3.66566298,8.91177319 3.08726916,11.6474358 2.70287078,13.4727341 C2.67053821,13.637946 2.73161085,13.8127659 2.87890368,13.9174001 C3.02529839,14.0219172 3.21390507,14.0236747 3.36209604,13.9420062 C5.01824232,13.0210378 7.49886924,11.6360116 7.49886924,11.6360116 C7.49886924,11.6360116 9.98039429,13.0210378 11.6337983,13.9428264 C11.7846836,14.0236747 11.9732903,14.0219172 12.1197449,13.9174001 C12.2670377,13.8127659 12.3281104,13.637946 12.2948198,13.4735543 C11.9104214,11.6474358 11.3329856,8.91177319 11.3329856,8.91177319 C11.3329856,8.91177319 13.4462187,7.03116991 14.8526857,5.77802024 C14.9784234,5.6628992 15.0341073,5.4862631 14.9784234,5.31753607 C14.9227396,5.14880905 14.7718542,5.03720316 14.6012101,5.01786985 C12.7079583,4.81047622 9.86902654,4.50290091 9.86902654,4.50290091 C9.86902654,4.50290091 8.6924801,1.9561774 7.90841518,0.258362903 C7.83476876,0.106332825 7.68029091,0 7.49886924,0 C7.31744758,0 7.1620716,0.107211611 7.09201769,0.258362903 C6.30705464,1.9561774 5.13140633,4.50290091 5.13140633,4.50290091 Z" id="Path"></path>
                    </g>
                </g>
            </g>
        </g>
    </g>
</svg>