<?xml version="1.0" encoding="UTF-8"?>
<svg width="12px" height="12px" viewBox="0 0 12 12" version="1.1" xmlns="http://www.w3.org/2000/svg" xmlns:xlink="http://www.w3.org/1999/xlink">
    <title>3403727_call_communication_device_phone_telephone_icon</title>
    <g id="13-|-ДШП" stroke="none" stroke-width="1" fill="none" fill-rule="evenodd">
        <g id="Iphone-11-pro-Copy-12" transform="translate(-312.000000, -304.000000)" fill="#000000" fill-rule="nonzero">
            <g id="Group-4" transform="translate(33.000000, 285.000000)">
                <g id="3403727_call_communication_device_phone_telephone_icon" transform="translate(279.000000, 19.000000)">
                    <path d="M11.2668538,11.4667435 C10.9657352,11.7311758 10.6144302,11.8994508 10.2129388,11.9715687 C10.2129388,11.9715687 10.2129388,11.9715687 10.2129388,11.9715687 C10.2129388,11.9715687 10.2129388,11.9715687 10.2129388,11.9715687 C10.1376591,11.995608 10.0372863,11.995608 9.96200662,11.995608 C9.93691341,11.995608 9.88672697,11.995608 9.81144733,11.995608 C9.81144733,11.995608 9.81144733,11.995608 9.81144733,11.995608 L9.68598125,11.995608 C7.32721898,12.0677259 5.04373635,11.2503899 3.26211804,9.63975715 C1.279754,7.86084935 0.100372863,5.28864482 0,2.59624382 C0,2.52412594 0,2.45200805 0,2.40392946 C0,2.40392946 0,2.40392946 0,2.40392946 C0,2.40392946 0,2.40392946 0,2.40392946 C0,2.37989017 0,2.35585087 0,2.33181158 C0,2.2596937 0,2.18757581 0,2.09141863 C0,2.09141863 0,2.06737934 0,2.06737934 C0.075279647,0.913493196 0.978635411,0.0240392946 2.0827369,0 C2.23329619,0 2.38385549,0 2.50932157,0.0240392946 C2.71006729,0.0721178839 2.91081302,0.144235768 3.11155874,0.240392946 L3.73888913,3.75012996 C3.41267733,4.13475868 2.96099945,4.39919092 2.48422835,4.4713088 C2.48422835,4.4713088 2.48422835,4.4713088 2.45913514,4.4713088 C2.45913514,4.4713088 2.45913514,4.4713088 2.43404192,4.4713088 C2.43404192,4.4713088 2.4089487,4.4713088 2.4089487,4.4953481 C2.38385549,4.4953481 2.38385549,4.51938739 2.35876227,4.51938739 C2.33366906,4.51938739 2.33366906,4.54342669 2.33366906,4.54342669 C2.33366906,4.54342669 2.30857584,4.56746598 2.30857584,4.56746598 C2.30857584,4.59150528 2.28348263,4.59150528 2.28348263,4.61554457 C2.28348263,4.63958387 2.28348263,4.63958387 2.25838941,4.66362316 C2.25838941,4.68766245 2.25838941,4.68766245 2.25838941,4.71170175 C2.25838941,4.71170175 2.25838941,4.73574104 2.25838941,4.73574104 C2.25838941,4.73574104 2.25838941,4.73574104 2.25838941,4.75978034 C2.25838941,4.75978034 2.25838941,4.75978034 2.25838941,4.78381963 C3.08646553,7.21178839 4.99354992,9.06281408 7.40249862,9.73591433 C7.40249862,9.73591433 7.42759184,9.73591433 7.42759184,9.73591433 C7.42759184,9.73591433 7.42759184,9.73591433 7.45268505,9.73591433 C7.45268505,9.73591433 7.47777827,9.73591433 7.47777827,9.73591433 C7.47777827,9.73591433 7.47777827,9.73591433 7.47777827,9.73591433 C7.47777827,9.73591433 7.47777827,9.73591433 7.47777827,9.73591433 C7.47777827,9.73591433 7.47777827,9.73591433 7.47777827,9.73591433 C7.47777827,9.73591433 7.47777827,9.73591433 7.47777827,9.73591433 C7.50287149,9.73591433 7.5279647,9.73591433 7.55305792,9.71187503 C7.55305792,9.71187503 7.57815113,9.71187503 7.57815113,9.68783574 C7.60324435,9.68783574 7.60324435,9.66379644 7.62833756,9.66379644 C7.62833756,9.66379644 7.65343078,9.63975715 7.65343078,9.63975715 C7.65343078,9.61571786 7.678524,9.61571786 7.678524,9.59167856 C7.678524,9.59167856 7.678524,9.56763927 7.70361721,9.56763927 C7.70361721,9.56763927 7.70361721,9.54359997 7.70361721,9.54359997 C7.70361721,9.54359997 7.70361721,9.51956068 7.70361721,9.51956068 C7.70361721,9.51956068 7.70361721,9.49552138 7.70361721,9.49552138 C7.75380364,8.9906962 7.97964258,8.5099103 8.3309476,8.12528159 L11.7185317,8.58202819 C11.8189046,8.75030325 11.8941842,8.94261761 11.9443707,9.13493196 C11.9443707,9.13493196 11.9443707,9.15897126 11.9443707,9.15897126 C11.9694639,9.25512844 11.9945571,9.37532491 11.9945571,9.47148209 C11.9945571,9.51956068 11.9945571,9.56763927 11.9945571,9.61571786 C12.0447435,10.3849753 11.7436249,11.0340362 11.2668538,11.4667435 Z" id="Path"></path>
                </g>
            </g>
        </g>
    </g>
</svg>