<?xml version="1.0" encoding="UTF-8" standalone="no"?>
<!DOCTYPE svg PUBLIC "-//W3C//DTD SVG 1.1//EN" "http://www.w3.org/Graphics/SVG/1.1/DTD/svg11.dtd">
<svg width="100%" height="100%" viewBox="0 0 14 14" version="1.1" style="fill-rule:evenodd;clip-rule:evenodd;stroke-linejoin:round;stroke-miterlimit:2;">
    <g id="Components">
        <g transform="matrix(0.633027,0.633027,-2.27982,2.27982,13.0385,-1.07916)">
            <path d="M2.559,2.455C2.559,2.31 2.134,2.192 1.612,2.192C1.089,2.192 0.665,2.31 0.665,2.455L0.665,3.737C0.665,3.882 1.089,4 1.612,4C2.134,4 2.559,3.882 2.559,3.737L2.559,2.455Z" style="fill:rgb(255,0,1);"/>
        </g>
        <g transform="matrix(0.633027,-0.633027,2.27982,2.27982,-1.07916,0.961484)">
            <path d="M2.559,2.455C2.559,2.31 2.134,2.192 1.612,2.192C1.089,2.192 0.665,2.31 0.665,2.455L0.665,3.737C0.665,3.882 1.089,4 1.612,4C2.134,4 2.559,3.882 2.559,3.737L2.559,2.455Z" style="fill:rgb(255,0,1);"/>
        </g>
        <path id="Shape" d="M7,0C5.616,0 4.262,0.411 3.111,1.18C1.96,1.949 1.063,3.042 0.533,4.321C0.003,5.6 -0.136,7.008 0.135,8.366C0.405,9.724 1.071,10.971 2.05,11.95C3.029,12.929 4.277,13.595 5.634,13.865C6.992,14.136 8.4,13.997 9.679,13.467C10.958,12.937 12.051,12.04 12.82,10.889C13.589,9.738 14,8.384 14,7C13.998,5.144 13.26,3.365 11.948,2.052C10.635,0.74 8.856,0.002 7,0ZM7,12.25C5.962,12.25 4.947,11.942 4.083,11.365C3.22,10.788 2.547,9.968 2.15,9.009C1.752,8.05 1.648,6.994 1.851,5.976C2.053,4.957 2.553,4.022 3.288,3.288C4.022,2.553 4.957,2.053 5.976,1.851C6.994,1.648 8.05,1.752 9.009,2.15C9.968,2.547 10.788,3.22 11.365,4.083C11.942,4.947 12.25,5.962 12.25,7C12.248,8.392 11.695,9.726 10.711,10.711C9.726,11.695 8.392,12.248 7,12.25Z" style="fill:rgb(255,0,1);fill-rule:nonzero;"/>
    </g>
</svg>
