<?xml version="1.0" encoding="UTF-8"?>
<svg width="15px" height="14px" viewBox="0 0 15 14" version="1.1" xmlns="http://www.w3.org/2000/svg" xmlns:xlink="http://www.w3.org/1999/xlink">
  <title>Path</title>
  <g id="10-|-Worker-PO" stroke="none" stroke-width="1" fill="none" fill-rule="evenodd">
    <g id="IPhone-11-pro-Copy-9" transform="translate(-46.000000, -207.000000)" fill="#DBC927" fill-rule="nonzero">
      <g id="Group-8-Copy" transform="translate(33.000000, 192.000000)">
        <path d="M18.1314063,19.5029009 C18.1314063,19.5029009 15.2933248,19.8104762 13.400073,20.0161123 C13.2294277,20.0363244 13.0785435,20.1479303 13.0219615,20.3175361 C12.9653795,20.4871419 13.0219615,20.663778 13.1476993,20.7753839 C14.5541663,22.0311699 16.6674592,23.9117732 16.6674592,23.9117732 C16.665663,23.9117732 16.0872692,26.6474358 15.7028708,28.4727341 C15.6705382,28.637946 15.7316108,28.8127659 15.8789037,28.9174001 C16.0252984,29.0219172 16.2139051,29.0236747 16.362096,28.9420062 C18.0182423,28.0210378 20.4988692,26.6360116 20.4988692,26.6360116 C20.4988692,26.6360116 22.9803943,28.0210378 24.6337983,28.9428264 C24.7846836,29.0236747 24.9732903,29.0219172 25.1197449,28.9174001 C25.2670377,28.8127659 25.3281104,28.637946 25.2948198,28.4735543 C24.9104214,26.6474358 24.3329856,23.9117732 24.3329856,23.9117732 C24.3329856,23.9117732 26.4462187,22.0311699 27.8526857,20.7780202 C27.9784234,20.6628992 28.0341073,20.4862631 27.9784234,20.3175361 C27.9227396,20.1488091 27.7718542,20.0372032 27.6012101,20.0178699 C25.7079583,19.8104762 22.8690265,19.5029009 22.8690265,19.5029009 C22.8690265,19.5029009 21.6924801,16.9561774 20.9084152,15.2583629 C20.8347688,15.1063328 20.6802909,15 20.4988692,15 C20.3174476,15 20.1620716,15.1072116 20.0920177,15.2583629 C19.3070546,16.9561774 18.1314063,19.5029009 18.1314063,19.5029009 Z" id="Path"></path>
      </g>
    </g>
  </g>
</svg>