<svg width="12px" height="16px" viewBox="0 0 12 16" version="1.1" xmlns="http://www.w3.org/2000/svg" xmlns:xlink="http://www.w3.org/1999/xlink">
  <title>8664862_file_lines_icon</title>
  <g id="10-|-Worker-PO" stroke="none" stroke-width="1" fill="none" fill-rule="evenodd">
    <g id="IPhone-11-pro-Copy-9" transform="translate(-49.000000, -690.000000)" fill="#7A7A7A" fill-rule="nonzero">
      <g id="Group-7-Copy-2" transform="translate(33.000000, 676.000000)">
        <g id="8664862_file_lines_icon" transform="translate(16.000000, 14.000000)">
          <path d="M11.415625,2.91812812 L9.0834375,0.585628125 C8.70625,0.210690625 8.196875,0 7.66875,0 L2,0 C0.8953125,0 0,0.8953125 0,2 L0.000203125,14 C0.000203125,15.104375 0.895515625,16 2.00020313,16 L10,16 C11.1,16 12,15.1 12,14 L12,4.33125312 C12,3.80312813 11.790625,3.29375313 11.415625,2.91812812 Z M10.5,14.0000031 C10.5,14.2761281 10.276125,14.5000031 10,14.5000031 L2.000625,14.5000031 C1.7244375,14.5000031 1.500625,14.2761281 1.500625,14.0000031 L1.5,2.00406563 C1.5,1.72794063 1.723875,1.50406563 2,1.50406563 L7,1.50406563 L7,4.00000313 C7,4.55219063 7.4478125,5.00000313 8,5.00000313 L10.471875,5.00000313 L10.471875,14.0000031 L10.5,14.0000031 Z M3,8.75000313 C3,9.16562813 3.3375,9.50000312 3.75,9.50000312 L8.25,9.50000312 C8.665625,9.50000312 9,9.16562813 9,8.75000313 C9,8.33437812 8.665625,8.00000312 8.25,8.00000312 L3.75,8.00000312 C3.3375,8.00000312 3,8.33750312 3,8.75000313 Z M8.25,11.0000031 L3.75,11.0000031 C3.3375,11.0000031 3,11.3375031 3,11.7500031 C3,12.1625031 3.3359375,12.5000031 3.75,12.5000031 L8.25,12.5000031 C8.6640625,12.5000031 9,12.1640656 9,11.7500031 C9,11.3359406 8.665625,11.0000031 8.25,11.0000031 Z" id="Shape"></path>
        </g>
      </g>
    </g>
  </g>
</svg>