<?xml version="1.0" encoding="UTF-8" standalone="no"?>
<!DOCTYPE svg PUBLIC "-//W3C//DTD SVG 1.1//EN" "http://www.w3.org/Graphics/SVG/1.1/DTD/svg11.dtd">
<svg width="100%" height="100%" viewBox="0 0 1266 556" version="1.1" xmlns="http://www.w3.org/2000/svg" xmlns:xlink="http://www.w3.org/1999/xlink" xml:space="preserve" xmlns:serif="http://www.serif.com/" style="fill-rule:evenodd;clip-rule:evenodd;">
    <g id="Architecture">
        <rect x="0" y="0" width="1266" height="556" style="fill:rgb(11,17,23);"/>
        <g transform="matrix(1,0,0,1,766.297,113)">
            <g transform="matrix(37,0,0,37,0,0)">
                <path d="M0.326,0.014C0.248,0.014 0.184,-0.008 0.134,-0.052C0.084,-0.096 0.059,-0.155 0.059,-0.229L0.059,-0.7L0.196,-0.7L0.196,-0.24C0.196,-0.203 0.207,-0.174 0.228,-0.153C0.249,-0.132 0.281,-0.121 0.326,-0.121C0.371,-0.121 0.404,-0.132 0.425,-0.153C0.446,-0.174 0.456,-0.203 0.456,-0.24L0.456,-0.7L0.594,-0.7L0.594,-0.229C0.594,-0.155 0.569,-0.096 0.519,-0.052C0.469,-0.008 0.405,0.014 0.326,0.014Z" style="fill:white;fill-rule:nonzero;"/>
            </g>
            <g transform="matrix(37,0,0,37,23.976,0)">
                <path d="M0.178,-0.358C0.178,-0.345 0.187,-0.334 0.205,-0.326C0.222,-0.317 0.244,-0.31 0.269,-0.304C0.294,-0.297 0.32,-0.289 0.345,-0.28C0.37,-0.27 0.392,-0.254 0.41,-0.231C0.427,-0.208 0.436,-0.18 0.436,-0.146C0.436,-0.095 0.417,-0.055 0.379,-0.028C0.34,0 0.292,0.014 0.235,0.014C0.132,0.014 0.062,-0.026 0.025,-0.105L0.137,-0.168C0.152,-0.125 0.184,-0.103 0.235,-0.103C0.281,-0.103 0.304,-0.117 0.304,-0.146C0.304,-0.159 0.295,-0.17 0.278,-0.179C0.26,-0.187 0.238,-0.194 0.213,-0.201C0.188,-0.208 0.162,-0.216 0.137,-0.226C0.112,-0.236 0.09,-0.252 0.073,-0.274C0.055,-0.295 0.046,-0.322 0.046,-0.355C0.046,-0.404 0.064,-0.443 0.101,-0.472C0.137,-0.5 0.182,-0.514 0.236,-0.514C0.277,-0.514 0.314,-0.505 0.347,-0.487C0.38,-0.468 0.407,-0.442 0.426,-0.408L0.316,-0.348C0.3,-0.382 0.273,-0.399 0.236,-0.399C0.219,-0.399 0.206,-0.395 0.195,-0.388C0.184,-0.381 0.178,-0.371 0.178,-0.358Z" style="fill:white;fill-rule:nonzero;"/>
            </g>
            <g transform="matrix(37,0,0,37,40.737,0)">
                <path d="M0.168,-0.197C0.185,-0.134 0.232,-0.103 0.309,-0.103C0.358,-0.103 0.396,-0.12 0.421,-0.153L0.525,-0.093C0.476,-0.022 0.403,0.014 0.307,0.014C0.224,0.014 0.158,-0.011 0.108,-0.061C0.058,-0.111 0.033,-0.174 0.033,-0.25C0.033,-0.325 0.058,-0.388 0.107,-0.439C0.156,-0.489 0.22,-0.514 0.297,-0.514C0.37,-0.514 0.431,-0.489 0.479,-0.438C0.526,-0.387 0.55,-0.325 0.55,-0.25C0.55,-0.233 0.548,-0.216 0.545,-0.197L0.168,-0.197ZM0.166,-0.297L0.421,-0.297C0.414,-0.331 0.399,-0.356 0.376,-0.373C0.353,-0.39 0.326,-0.398 0.297,-0.398C0.262,-0.398 0.234,-0.389 0.211,-0.372C0.188,-0.354 0.173,-0.329 0.166,-0.297Z" style="fill:white;fill-rule:nonzero;"/>
            </g>
            <g transform="matrix(37,0,0,37,62.234,0)">
                <path d="M0.188,-0.414C0.2,-0.446 0.22,-0.47 0.248,-0.486C0.275,-0.502 0.306,-0.51 0.34,-0.51L0.34,-0.366C0.301,-0.371 0.266,-0.363 0.235,-0.342C0.204,-0.321 0.188,-0.287 0.188,-0.239L0.188,-0L0.059,-0L0.059,-0.5L0.188,-0.5L0.188,-0.414Z" style="fill:white;fill-rule:nonzero;"/>
            </g>
        </g>
        <g transform="matrix(1,0,0,1,1024.67,288)">
            <g transform="matrix(37,0,0,37,0,0)">
                <path d="M0.211,-0L0.015,-0.7L0.16,-0.7L0.294,-0.181L0.44,-0.7L0.558,-0.7L0.705,-0.181L0.839,-0.7L0.984,-0.7L0.788,-0L0.631,-0L0.499,-0.462L0.368,-0L0.211,-0Z" style="fill:white;fill-rule:nonzero;"/>
            </g>
            <g transform="matrix(37,0,0,37,34.743,0)">
                <path d="M0.485,-0.062C0.434,-0.011 0.371,0.014 0.297,0.014C0.223,0.014 0.161,-0.012 0.11,-0.063C0.058,-0.114 0.033,-0.176 0.033,-0.25C0.033,-0.324 0.058,-0.387 0.11,-0.438C0.161,-0.489 0.223,-0.514 0.297,-0.514C0.371,-0.514 0.434,-0.489 0.485,-0.438C0.536,-0.387 0.562,-0.324 0.562,-0.25C0.562,-0.176 0.536,-0.113 0.485,-0.062ZM0.2,-0.151C0.226,-0.125 0.258,-0.112 0.297,-0.112C0.336,-0.112 0.368,-0.125 0.394,-0.151C0.42,-0.177 0.433,-0.21 0.433,-0.25C0.433,-0.29 0.42,-0.323 0.394,-0.349C0.368,-0.375 0.336,-0.388 0.297,-0.388C0.258,-0.388 0.226,-0.375 0.201,-0.349C0.175,-0.323 0.162,-0.29 0.162,-0.25C0.162,-0.21 0.175,-0.177 0.2,-0.151Z" style="fill:white;fill-rule:nonzero;"/>
            </g>
            <g transform="matrix(37,0,0,37,56.721,0)">
                <path d="M0.188,-0.414C0.2,-0.446 0.22,-0.47 0.248,-0.486C0.275,-0.502 0.306,-0.51 0.34,-0.51L0.34,-0.366C0.301,-0.371 0.266,-0.363 0.235,-0.342C0.204,-0.321 0.188,-0.287 0.188,-0.239L0.188,-0L0.059,-0L0.059,-0.5L0.188,-0.5L0.188,-0.414Z" style="fill:white;fill-rule:nonzero;"/>
            </g>
            <g transform="matrix(37,0,0,37,69.893,0)">
                <path d="M0.52,-0L0.37,-0L0.188,-0.227L0.188,-0L0.059,-0L0.059,-0.7L0.188,-0.7L0.188,-0.28L0.36,-0.5L0.514,-0.5L0.313,-0.253L0.52,-0Z" style="fill:white;fill-rule:nonzero;"/>
            </g>
            <g transform="matrix(37,0,0,37,87.986,0)">
                <path d="M0.168,-0.197C0.185,-0.134 0.232,-0.103 0.309,-0.103C0.358,-0.103 0.396,-0.12 0.421,-0.153L0.525,-0.093C0.476,-0.022 0.403,0.014 0.307,0.014C0.224,0.014 0.158,-0.011 0.108,-0.061C0.058,-0.111 0.033,-0.174 0.033,-0.25C0.033,-0.325 0.058,-0.388 0.107,-0.439C0.156,-0.489 0.22,-0.514 0.297,-0.514C0.37,-0.514 0.431,-0.489 0.479,-0.438C0.526,-0.387 0.55,-0.325 0.55,-0.25C0.55,-0.233 0.548,-0.216 0.545,-0.197L0.168,-0.197ZM0.166,-0.297L0.421,-0.297C0.414,-0.331 0.399,-0.356 0.376,-0.373C0.353,-0.39 0.326,-0.398 0.297,-0.398C0.262,-0.398 0.234,-0.389 0.211,-0.372C0.188,-0.354 0.173,-0.329 0.166,-0.297Z" style="fill:white;fill-rule:nonzero;"/>
            </g>
            <g transform="matrix(37,0,0,37,109.483,0)">
                <path d="M0.188,-0.414C0.2,-0.446 0.22,-0.47 0.248,-0.486C0.275,-0.502 0.306,-0.51 0.34,-0.51L0.34,-0.366C0.301,-0.371 0.266,-0.363 0.235,-0.342C0.204,-0.321 0.188,-0.287 0.188,-0.239L0.188,-0L0.059,-0L0.059,-0.5L0.188,-0.5L0.188,-0.414Z" style="fill:white;fill-rule:nonzero;"/>
            </g>
        </g>
        <g transform="matrix(1,0,0,1,557.486,288)">
            <g transform="matrix(37,0,0,37,0,0)">
                <path d="M0.203,-0.132L0.498,-0.132L0.498,-0L0.065,-0L0.065,-0.7L0.493,-0.7L0.493,-0.568L0.203,-0.568L0.203,-0.419L0.468,-0.419L0.468,-0.289L0.203,-0.289L0.203,-0.132Z" style="fill:rgb(0,204,175);fill-rule:nonzero;"/>
            </g>
            <g transform="matrix(37,0,0,37,19.61,0)">
                <path d="M0.612,-0.514C0.669,-0.514 0.715,-0.495 0.75,-0.458C0.784,-0.421 0.801,-0.371 0.801,-0.308L0.801,-0L0.672,-0L0.672,-0.299C0.672,-0.329 0.665,-0.352 0.65,-0.369C0.635,-0.386 0.615,-0.394 0.588,-0.394C0.559,-0.394 0.536,-0.384 0.52,-0.365C0.503,-0.346 0.495,-0.318 0.495,-0.281L0.495,-0L0.366,-0L0.366,-0.299C0.366,-0.329 0.359,-0.352 0.344,-0.369C0.329,-0.386 0.309,-0.394 0.282,-0.394C0.253,-0.394 0.231,-0.384 0.214,-0.365C0.197,-0.346 0.188,-0.318 0.188,-0.281L0.188,-0L0.059,-0L0.059,-0.5L0.188,-0.5L0.188,-0.447C0.218,-0.492 0.264,-0.514 0.327,-0.514C0.388,-0.514 0.434,-0.49 0.463,-0.442C0.496,-0.49 0.546,-0.514 0.612,-0.514Z" style="fill:rgb(0,204,175);fill-rule:nonzero;"/>
            </g>
            <g transform="matrix(37,0,0,37,51.134,0)">
                <path d="M0.35,-0.514C0.417,-0.514 0.475,-0.489 0.523,-0.438C0.57,-0.387 0.594,-0.324 0.594,-0.25C0.594,-0.176 0.57,-0.114 0.523,-0.063C0.475,-0.012 0.417,0.014 0.35,0.014C0.28,0.014 0.226,-0.01 0.188,-0.059L0.188,0.2L0.059,0.2L0.059,-0.5L0.188,-0.5L0.188,-0.441C0.226,-0.49 0.28,-0.514 0.35,-0.514ZM0.227,-0.148C0.253,-0.122 0.286,-0.109 0.326,-0.109C0.366,-0.109 0.399,-0.122 0.426,-0.149C0.452,-0.175 0.465,-0.209 0.465,-0.25C0.465,-0.291 0.452,-0.325 0.426,-0.352C0.399,-0.378 0.366,-0.391 0.326,-0.391C0.286,-0.391 0.253,-0.378 0.227,-0.352C0.201,-0.325 0.188,-0.291 0.188,-0.25C0.188,-0.209 0.201,-0.175 0.227,-0.148Z" style="fill:rgb(0,204,175);fill-rule:nonzero;"/>
            </g>
            <g transform="matrix(37,0,0,37,74.296,0)">
                <rect x="0.059" y="-0.73" width="0.129" height="0.73" style="fill:rgb(0,204,175);fill-rule:nonzero;"/>
            </g>
            <g transform="matrix(37,0,0,37,83.435,0)">
                <path d="M0.485,-0.062C0.434,-0.011 0.371,0.014 0.297,0.014C0.223,0.014 0.161,-0.012 0.11,-0.063C0.058,-0.114 0.033,-0.176 0.033,-0.25C0.033,-0.324 0.058,-0.387 0.11,-0.438C0.161,-0.489 0.223,-0.514 0.297,-0.514C0.371,-0.514 0.434,-0.489 0.485,-0.438C0.536,-0.387 0.562,-0.324 0.562,-0.25C0.562,-0.176 0.536,-0.113 0.485,-0.062ZM0.2,-0.151C0.226,-0.125 0.258,-0.112 0.297,-0.112C0.336,-0.112 0.368,-0.125 0.394,-0.151C0.42,-0.177 0.433,-0.21 0.433,-0.25C0.433,-0.29 0.42,-0.323 0.394,-0.349C0.368,-0.375 0.336,-0.388 0.297,-0.388C0.258,-0.388 0.226,-0.375 0.201,-0.349C0.175,-0.323 0.162,-0.29 0.162,-0.25C0.162,-0.21 0.175,-0.177 0.2,-0.151Z" style="fill:rgb(0,204,175);fill-rule:nonzero;"/>
            </g>
            <g transform="matrix(37,0,0,37,104.673,0)">
                <path d="M0.385,-0.5L0.523,-0.5L0.341,-0C0.315,0.072 0.281,0.124 0.238,0.157C0.195,0.189 0.141,0.203 0.077,0.2L0.077,0.08C0.112,0.081 0.139,0.073 0.16,0.058C0.18,0.043 0.196,0.018 0.208,-0.016L0.003,-0.5L0.144,-0.5L0.274,-0.164L0.385,-0.5Z" style="fill:rgb(0,204,175);fill-rule:nonzero;"/>
            </g>
            <g transform="matrix(37,0,0,37,123.358,0)">
                <path d="M0.168,-0.197C0.185,-0.134 0.232,-0.103 0.309,-0.103C0.358,-0.103 0.396,-0.12 0.421,-0.153L0.525,-0.093C0.476,-0.022 0.403,0.014 0.307,0.014C0.224,0.014 0.158,-0.011 0.108,-0.061C0.058,-0.111 0.033,-0.174 0.033,-0.25C0.033,-0.325 0.058,-0.388 0.107,-0.439C0.156,-0.489 0.22,-0.514 0.297,-0.514C0.37,-0.514 0.431,-0.489 0.479,-0.438C0.526,-0.387 0.55,-0.325 0.55,-0.25C0.55,-0.233 0.548,-0.216 0.545,-0.197L0.168,-0.197ZM0.166,-0.297L0.421,-0.297C0.414,-0.331 0.399,-0.356 0.376,-0.373C0.353,-0.39 0.326,-0.398 0.297,-0.398C0.262,-0.398 0.234,-0.389 0.211,-0.372C0.188,-0.354 0.173,-0.329 0.166,-0.297Z" style="fill:rgb(0,204,175);fill-rule:nonzero;"/>
            </g>
            <g transform="matrix(37,0,0,37,144.855,0)">
                <path d="M0.188,-0.414C0.2,-0.446 0.22,-0.47 0.248,-0.486C0.275,-0.502 0.306,-0.51 0.34,-0.51L0.34,-0.366C0.301,-0.371 0.266,-0.363 0.235,-0.342C0.204,-0.321 0.188,-0.287 0.188,-0.239L0.188,-0L0.059,-0L0.059,-0.5L0.188,-0.5L0.188,-0.414Z" style="fill:rgb(0,204,175);fill-rule:nonzero;"/>
            </g>
        </g>
        <g transform="matrix(1,0,0,1,238.151,467)">
            <g transform="matrix(37,0,0,37,0,0)">
                <path d="M0.449,-0L0.308,-0.243L0.203,-0.243L0.203,-0L0.065,-0L0.065,-0.7L0.345,-0.7C0.41,-0.7 0.465,-0.677 0.51,-0.632C0.555,-0.587 0.578,-0.532 0.578,-0.468C0.578,-0.425 0.566,-0.385 0.541,-0.348C0.516,-0.311 0.484,-0.283 0.443,-0.264L0.598,-0L0.449,-0ZM0.203,-0.571L0.203,-0.364L0.345,-0.364C0.371,-0.364 0.393,-0.374 0.412,-0.395C0.431,-0.415 0.44,-0.439 0.44,-0.468C0.44,-0.497 0.431,-0.521 0.412,-0.541C0.393,-0.561 0.371,-0.571 0.345,-0.571L0.203,-0.571Z" style="fill:rgb(0,204,175);fill-rule:nonzero;"/>
            </g>
            <g transform="matrix(37,0,0,37,21.793,0)">
                <path d="M0.168,-0.197C0.185,-0.134 0.232,-0.103 0.309,-0.103C0.358,-0.103 0.396,-0.12 0.421,-0.153L0.525,-0.093C0.476,-0.022 0.403,0.014 0.307,0.014C0.224,0.014 0.158,-0.011 0.108,-0.061C0.058,-0.111 0.033,-0.174 0.033,-0.25C0.033,-0.325 0.058,-0.388 0.107,-0.439C0.156,-0.489 0.22,-0.514 0.297,-0.514C0.37,-0.514 0.431,-0.489 0.479,-0.438C0.526,-0.387 0.55,-0.325 0.55,-0.25C0.55,-0.233 0.548,-0.216 0.545,-0.197L0.168,-0.197ZM0.166,-0.297L0.421,-0.297C0.414,-0.331 0.399,-0.356 0.376,-0.373C0.353,-0.39 0.326,-0.398 0.297,-0.398C0.262,-0.398 0.234,-0.389 0.211,-0.372C0.188,-0.354 0.173,-0.329 0.166,-0.297Z" style="fill:rgb(0,204,175);fill-rule:nonzero;"/>
            </g>
            <g transform="matrix(37,0,0,37,43.142,0)">
                <path d="M0.297,0.014C0.222,0.014 0.159,-0.011 0.109,-0.062C0.058,-0.113 0.033,-0.175 0.033,-0.25C0.033,-0.325 0.058,-0.387 0.109,-0.438C0.159,-0.489 0.222,-0.514 0.297,-0.514C0.346,-0.514 0.39,-0.502 0.43,-0.479C0.47,-0.456 0.5,-0.424 0.521,-0.385L0.41,-0.32C0.4,-0.341 0.385,-0.357 0.365,-0.369C0.344,-0.381 0.321,-0.387 0.296,-0.387C0.257,-0.387 0.225,-0.374 0.2,-0.349C0.175,-0.323 0.162,-0.29 0.162,-0.25C0.162,-0.211 0.175,-0.178 0.2,-0.153C0.225,-0.127 0.257,-0.114 0.296,-0.114C0.322,-0.114 0.345,-0.12 0.366,-0.132C0.386,-0.143 0.401,-0.159 0.411,-0.18L0.523,-0.116C0.501,-0.077 0.47,-0.045 0.43,-0.022C0.39,0.002 0.346,0.014 0.297,0.014Z" style="fill:rgb(0,204,175);fill-rule:nonzero;"/>
            </g>
            <g transform="matrix(37,0,0,37,62.974,0)">
                <path d="M0.188,-0.414C0.2,-0.446 0.22,-0.47 0.248,-0.486C0.275,-0.502 0.306,-0.51 0.34,-0.51L0.34,-0.366C0.301,-0.371 0.266,-0.363 0.235,-0.342C0.204,-0.321 0.188,-0.287 0.188,-0.239L0.188,-0L0.059,-0L0.059,-0.5L0.188,-0.5L0.188,-0.414Z" style="fill:rgb(0,204,175);fill-rule:nonzero;"/>
            </g>
            <g transform="matrix(37,0,0,37,76.146,0)">
                <path d="M0.389,-0.5L0.518,-0.5L0.518,-0L0.389,-0L0.389,-0.056C0.358,-0.009 0.308,0.014 0.24,0.014C0.185,0.014 0.14,-0.004 0.105,-0.041C0.069,-0.078 0.051,-0.128 0.051,-0.193L0.051,-0.5L0.18,-0.5L0.18,-0.209C0.18,-0.176 0.189,-0.15 0.207,-0.133C0.225,-0.115 0.249,-0.106 0.279,-0.106C0.312,-0.106 0.339,-0.116 0.359,-0.137C0.379,-0.158 0.389,-0.189 0.389,-0.23L0.389,-0.5Z" style="fill:rgb(0,204,175);fill-rule:nonzero;"/>
            </g>
            <g transform="matrix(37,0,0,37,97.495,0)">
                <path d="M0.123,-0.56C0.102,-0.56 0.083,-0.568 0.068,-0.584C0.052,-0.599 0.044,-0.618 0.044,-0.639C0.044,-0.66 0.052,-0.679 0.068,-0.695C0.083,-0.711 0.102,-0.719 0.123,-0.719C0.145,-0.719 0.164,-0.711 0.18,-0.695C0.195,-0.679 0.203,-0.66 0.203,-0.639C0.203,-0.618 0.195,-0.599 0.18,-0.584C0.164,-0.568 0.145,-0.56 0.123,-0.56ZM0.059,-0L0.059,-0.5L0.188,-0.5L0.188,-0L0.059,-0Z" style="fill:rgb(0,204,175);fill-rule:nonzero;"/>
            </g>
            <g transform="matrix(37,0,0,37,106.634,0)">
                <path d="M0.345,-0.376L0.232,-0.376L0.232,-0.168C0.232,-0.151 0.236,-0.138 0.245,-0.13C0.254,-0.122 0.266,-0.118 0.283,-0.117C0.3,-0.116 0.32,-0.116 0.345,-0.117L0.345,-0C0.256,0.01 0.194,0.002 0.158,-0.025C0.121,-0.052 0.103,-0.099 0.103,-0.168L0.103,-0.376L0.016,-0.376L0.016,-0.5L0.103,-0.5L0.103,-0.601L0.232,-0.64L0.232,-0.5L0.345,-0.5L0.345,-0.376Z" style="fill:rgb(0,204,175);fill-rule:nonzero;"/>
            </g>
            <g transform="matrix(37,0,0,37,120.028,0)">
                <path d="M0.168,-0.197C0.185,-0.134 0.232,-0.103 0.309,-0.103C0.358,-0.103 0.396,-0.12 0.421,-0.153L0.525,-0.093C0.476,-0.022 0.403,0.014 0.307,0.014C0.224,0.014 0.158,-0.011 0.108,-0.061C0.058,-0.111 0.033,-0.174 0.033,-0.25C0.033,-0.325 0.058,-0.388 0.107,-0.439C0.156,-0.489 0.22,-0.514 0.297,-0.514C0.37,-0.514 0.431,-0.489 0.479,-0.438C0.526,-0.387 0.55,-0.325 0.55,-0.25C0.55,-0.233 0.548,-0.216 0.545,-0.197L0.168,-0.197ZM0.166,-0.297L0.421,-0.297C0.414,-0.331 0.399,-0.356 0.376,-0.373C0.353,-0.39 0.326,-0.398 0.297,-0.398C0.262,-0.398 0.234,-0.389 0.211,-0.372C0.188,-0.354 0.173,-0.329 0.166,-0.297Z" style="fill:rgb(0,204,175);fill-rule:nonzero;"/>
            </g>
            <g transform="matrix(37,0,0,37,141.525,0)">
                <path d="M0.188,-0.414C0.2,-0.446 0.22,-0.47 0.248,-0.486C0.275,-0.502 0.306,-0.51 0.34,-0.51L0.34,-0.366C0.301,-0.371 0.266,-0.363 0.235,-0.342C0.204,-0.321 0.188,-0.287 0.188,-0.239L0.188,-0L0.059,-0L0.059,-0.5L0.188,-0.5L0.188,-0.414Z" style="fill:rgb(0,204,175);fill-rule:nonzero;"/>
            </g>
        </g>
        <g transform="matrix(1,0,0,1,753.723,467)">
            <g transform="matrix(37,0,0,37,0,0)">
                <path d="M0.654,-0.091C0.583,-0.021 0.497,0.014 0.396,0.014C0.295,0.014 0.209,-0.021 0.139,-0.092C0.068,-0.162 0.033,-0.248 0.033,-0.35C0.033,-0.452 0.068,-0.538 0.139,-0.609C0.209,-0.679 0.295,-0.714 0.396,-0.714C0.497,-0.714 0.583,-0.679 0.654,-0.609C0.725,-0.538 0.76,-0.452 0.76,-0.35C0.76,-0.248 0.725,-0.162 0.654,-0.091ZM0.235,-0.185C0.278,-0.142 0.332,-0.121 0.396,-0.121C0.46,-0.121 0.514,-0.142 0.557,-0.186C0.6,-0.229 0.622,-0.283 0.622,-0.35C0.622,-0.417 0.6,-0.472 0.557,-0.515C0.514,-0.558 0.46,-0.58 0.396,-0.58C0.332,-0.58 0.278,-0.558 0.235,-0.515C0.192,-0.472 0.17,-0.417 0.17,-0.35C0.17,-0.283 0.192,-0.228 0.235,-0.185Z" style="fill:rgb(0,204,175);fill-rule:nonzero;"/>
            </g>
            <g transform="matrix(37,0,0,37,29.304,0)">
                <path d="M0.188,-0.414C0.2,-0.446 0.22,-0.47 0.248,-0.486C0.275,-0.502 0.306,-0.51 0.34,-0.51L0.34,-0.366C0.301,-0.371 0.266,-0.363 0.235,-0.342C0.204,-0.321 0.188,-0.287 0.188,-0.239L0.188,-0L0.059,-0L0.059,-0.5L0.188,-0.5L0.188,-0.414Z" style="fill:rgb(0,204,175);fill-rule:nonzero;"/>
            </g>
            <g transform="matrix(37,0,0,37,41.773,0)">
                <path d="M0.442,-0.5L0.568,-0.5L0.568,-0.024C0.568,0.053 0.543,0.112 0.492,0.153C0.441,0.194 0.379,0.214 0.307,0.214C0.253,0.214 0.206,0.204 0.165,0.183C0.124,0.162 0.092,0.132 0.07,0.092L0.18,0.029C0.205,0.076 0.249,0.099 0.311,0.099C0.352,0.099 0.384,0.088 0.407,0.067C0.43,0.046 0.442,0.015 0.442,-0.024L0.442,-0.078C0.404,-0.027 0.351,-0.002 0.282,-0.002C0.211,-0.002 0.152,-0.027 0.105,-0.077C0.057,-0.126 0.033,-0.187 0.033,-0.258C0.033,-0.329 0.057,-0.389 0.105,-0.439C0.153,-0.489 0.212,-0.514 0.282,-0.514C0.351,-0.514 0.404,-0.489 0.442,-0.438L0.442,-0.5ZM0.201,-0.159C0.228,-0.134 0.261,-0.121 0.302,-0.121C0.343,-0.121 0.376,-0.134 0.403,-0.16C0.429,-0.185 0.442,-0.218 0.442,-0.258C0.442,-0.297 0.429,-0.33 0.403,-0.356C0.376,-0.381 0.343,-0.394 0.302,-0.394C0.261,-0.394 0.228,-0.381 0.202,-0.356C0.175,-0.33 0.162,-0.297 0.162,-0.258C0.162,-0.218 0.175,-0.185 0.201,-0.159Z" style="fill:rgb(0,204,175);fill-rule:nonzero;"/>
            </g>
            <g transform="matrix(37,0,0,37,64.935,0)">
                <path d="M0.439,-0.5L0.568,-0.5L0.568,-0L0.439,-0L0.439,-0.059C0.4,-0.01 0.346,0.014 0.276,0.014C0.209,0.014 0.152,-0.012 0.105,-0.063C0.057,-0.114 0.033,-0.176 0.033,-0.25C0.033,-0.324 0.057,-0.387 0.105,-0.438C0.152,-0.489 0.209,-0.514 0.276,-0.514C0.346,-0.514 0.4,-0.49 0.439,-0.441L0.439,-0.5ZM0.201,-0.148C0.227,-0.122 0.26,-0.109 0.3,-0.109C0.34,-0.109 0.373,-0.122 0.4,-0.149C0.426,-0.175 0.439,-0.209 0.439,-0.25C0.439,-0.291 0.426,-0.325 0.4,-0.352C0.373,-0.378 0.34,-0.391 0.3,-0.391C0.26,-0.391 0.227,-0.378 0.201,-0.352C0.175,-0.325 0.162,-0.291 0.162,-0.25C0.162,-0.209 0.175,-0.175 0.201,-0.148Z" style="fill:rgb(0,204,175);fill-rule:nonzero;"/>
            </g>
            <g transform="matrix(37,0,0,37,88.097,0)">
                <path d="M0.337,-0.514C0.392,-0.514 0.437,-0.496 0.473,-0.459C0.508,-0.422 0.526,-0.372 0.526,-0.307L0.526,-0L0.397,-0L0.397,-0.291C0.397,-0.324 0.388,-0.35 0.37,-0.368C0.352,-0.385 0.328,-0.394 0.298,-0.394C0.265,-0.394 0.238,-0.384 0.218,-0.363C0.198,-0.342 0.188,-0.311 0.188,-0.27L0.188,-0L0.059,-0L0.059,-0.5L0.188,-0.5L0.188,-0.444C0.219,-0.491 0.269,-0.514 0.337,-0.514Z" style="fill:rgb(0,204,175);fill-rule:nonzero;"/>
            </g>
            <g transform="matrix(37,0,0,37,109.446,0)">
                <path d="M0.123,-0.56C0.102,-0.56 0.083,-0.568 0.068,-0.584C0.052,-0.599 0.044,-0.618 0.044,-0.639C0.044,-0.66 0.052,-0.679 0.068,-0.695C0.083,-0.711 0.102,-0.719 0.123,-0.719C0.145,-0.719 0.164,-0.711 0.18,-0.695C0.195,-0.679 0.203,-0.66 0.203,-0.639C0.203,-0.618 0.195,-0.599 0.18,-0.584C0.164,-0.568 0.145,-0.56 0.123,-0.56ZM0.059,-0L0.059,-0.5L0.188,-0.5L0.188,-0L0.059,-0Z" style="fill:rgb(0,204,175);fill-rule:nonzero;"/>
            </g>
            <g transform="matrix(37,0,0,37,118.585,0)">
                <path d="M0.216,-0.121L0.438,-0.121L0.438,-0L0.043,-0L0.043,-0.086L0.254,-0.379L0.053,-0.379L0.053,-0.5L0.428,-0.5L0.428,-0.414L0.216,-0.121Z" style="fill:rgb(0,204,175);fill-rule:nonzero;"/>
            </g>
            <g transform="matrix(37,0,0,37,134.976,0)">
                <path d="M0.439,-0.5L0.568,-0.5L0.568,-0L0.439,-0L0.439,-0.059C0.4,-0.01 0.346,0.014 0.276,0.014C0.209,0.014 0.152,-0.012 0.105,-0.063C0.057,-0.114 0.033,-0.176 0.033,-0.25C0.033,-0.324 0.057,-0.387 0.105,-0.438C0.152,-0.489 0.209,-0.514 0.276,-0.514C0.346,-0.514 0.4,-0.49 0.439,-0.441L0.439,-0.5ZM0.201,-0.148C0.227,-0.122 0.26,-0.109 0.3,-0.109C0.34,-0.109 0.373,-0.122 0.4,-0.149C0.426,-0.175 0.439,-0.209 0.439,-0.25C0.439,-0.291 0.426,-0.325 0.4,-0.352C0.373,-0.378 0.34,-0.391 0.3,-0.391C0.26,-0.391 0.227,-0.378 0.201,-0.352C0.175,-0.325 0.162,-0.291 0.162,-0.25C0.162,-0.209 0.175,-0.175 0.201,-0.148Z" style="fill:rgb(0,204,175);fill-rule:nonzero;"/>
            </g>
            <g transform="matrix(37,0,0,37,158.138,0)">
                <path d="M0.345,-0.376L0.232,-0.376L0.232,-0.168C0.232,-0.151 0.236,-0.138 0.245,-0.13C0.254,-0.122 0.266,-0.118 0.283,-0.117C0.3,-0.116 0.32,-0.116 0.345,-0.117L0.345,-0C0.256,0.01 0.194,0.002 0.158,-0.025C0.121,-0.052 0.103,-0.099 0.103,-0.168L0.103,-0.376L0.016,-0.376L0.016,-0.5L0.103,-0.5L0.103,-0.601L0.232,-0.64L0.232,-0.5L0.345,-0.5L0.345,-0.376Z" style="fill:rgb(0,204,175);fill-rule:nonzero;"/>
            </g>
            <g transform="matrix(37,0,0,37,172.087,0)">
                <path d="M0.123,-0.56C0.102,-0.56 0.083,-0.568 0.068,-0.584C0.052,-0.599 0.044,-0.618 0.044,-0.639C0.044,-0.66 0.052,-0.679 0.068,-0.695C0.083,-0.711 0.102,-0.719 0.123,-0.719C0.145,-0.719 0.164,-0.711 0.18,-0.695C0.195,-0.679 0.203,-0.66 0.203,-0.639C0.203,-0.618 0.195,-0.599 0.18,-0.584C0.164,-0.568 0.145,-0.56 0.123,-0.56ZM0.059,-0L0.059,-0.5L0.188,-0.5L0.188,-0L0.059,-0Z" style="fill:rgb(0,204,175);fill-rule:nonzero;"/>
            </g>
            <g transform="matrix(37,0,0,37,181.226,0)">
                <path d="M0.485,-0.062C0.434,-0.011 0.371,0.014 0.297,0.014C0.223,0.014 0.161,-0.012 0.11,-0.063C0.058,-0.114 0.033,-0.176 0.033,-0.25C0.033,-0.324 0.058,-0.387 0.11,-0.438C0.161,-0.489 0.223,-0.514 0.297,-0.514C0.371,-0.514 0.434,-0.489 0.485,-0.438C0.536,-0.387 0.562,-0.324 0.562,-0.25C0.562,-0.176 0.536,-0.113 0.485,-0.062ZM0.2,-0.151C0.226,-0.125 0.258,-0.112 0.297,-0.112C0.336,-0.112 0.368,-0.125 0.394,-0.151C0.42,-0.177 0.433,-0.21 0.433,-0.25C0.433,-0.29 0.42,-0.323 0.394,-0.349C0.368,-0.375 0.336,-0.388 0.297,-0.388C0.258,-0.388 0.226,-0.375 0.201,-0.349C0.175,-0.323 0.162,-0.29 0.162,-0.25C0.162,-0.21 0.175,-0.177 0.2,-0.151Z" style="fill:rgb(0,204,175);fill-rule:nonzero;"/>
            </g>
            <g transform="matrix(37,0,0,37,203.204,0)">
                <path d="M0.337,-0.514C0.392,-0.514 0.437,-0.496 0.473,-0.459C0.508,-0.422 0.526,-0.372 0.526,-0.307L0.526,-0L0.397,-0L0.397,-0.291C0.397,-0.324 0.388,-0.35 0.37,-0.368C0.352,-0.385 0.328,-0.394 0.298,-0.394C0.265,-0.394 0.238,-0.384 0.218,-0.363C0.198,-0.342 0.188,-0.311 0.188,-0.27L0.188,-0L0.059,-0L0.059,-0.5L0.188,-0.5L0.188,-0.444C0.219,-0.491 0.269,-0.514 0.337,-0.514Z" style="fill:rgb(0,204,175);fill-rule:nonzero;"/>
            </g>
        </g>
        <g id="Rectangle" transform="matrix(1,0,0,1,343,256)">
            <path d="M204,16C204,7.169 196.831,0 188,0L16,0C7.169,0 0,7.169 0,16L0,26C0,34.831 7.169,42 16,42L188,42C196.831,42 204,34.831 204,26L204,16Z" style="fill:rgb(28,28,28);"/>
        </g>
        <g transform="matrix(1,0,0,1,359.987,285.5)">
            <g transform="matrix(26,0,0,26,0,0)">
                <path d="M0.439,-0.5L0.568,-0.5L0.568,-0L0.439,-0L0.439,-0.059C0.4,-0.01 0.346,0.014 0.276,0.014C0.209,0.014 0.152,-0.012 0.105,-0.063C0.057,-0.114 0.033,-0.176 0.033,-0.25C0.033,-0.324 0.057,-0.387 0.105,-0.438C0.152,-0.489 0.209,-0.514 0.276,-0.514C0.346,-0.514 0.4,-0.49 0.439,-0.441L0.439,-0.5ZM0.201,-0.148C0.227,-0.122 0.26,-0.109 0.3,-0.109C0.34,-0.109 0.373,-0.122 0.4,-0.149C0.426,-0.175 0.439,-0.209 0.439,-0.25C0.439,-0.291 0.426,-0.325 0.4,-0.352C0.373,-0.378 0.34,-0.391 0.3,-0.391C0.26,-0.391 0.227,-0.378 0.201,-0.352C0.175,-0.325 0.162,-0.291 0.162,-0.25C0.162,-0.209 0.175,-0.175 0.201,-0.148Z" style="fill:rgb(50,148,211);fill-rule:nonzero;"/>
            </g>
            <g transform="matrix(26,0,0,26,16.276,0)">
                <path d="M0.35,-0.514C0.417,-0.514 0.475,-0.489 0.523,-0.438C0.57,-0.387 0.594,-0.324 0.594,-0.25C0.594,-0.176 0.57,-0.114 0.523,-0.063C0.475,-0.012 0.417,0.014 0.35,0.014C0.28,0.014 0.226,-0.01 0.188,-0.059L0.188,-0L0.059,-0L0.059,-0.7L0.188,-0.7L0.188,-0.441C0.226,-0.49 0.28,-0.514 0.35,-0.514ZM0.227,-0.148C0.253,-0.122 0.286,-0.109 0.326,-0.109C0.366,-0.109 0.399,-0.122 0.426,-0.149C0.452,-0.175 0.465,-0.209 0.465,-0.25C0.465,-0.291 0.452,-0.325 0.426,-0.352C0.399,-0.378 0.366,-0.391 0.326,-0.391C0.286,-0.391 0.253,-0.378 0.227,-0.352C0.201,-0.325 0.188,-0.291 0.188,-0.25C0.188,-0.209 0.201,-0.175 0.227,-0.148Z" style="fill:rgb(50,148,211);fill-rule:nonzero;"/>
            </g>
            <g transform="matrix(26,0,0,26,32.266,0)">
                <path d="M0.178,-0.358C0.178,-0.345 0.187,-0.334 0.205,-0.326C0.222,-0.317 0.244,-0.31 0.269,-0.304C0.294,-0.297 0.32,-0.289 0.345,-0.28C0.37,-0.27 0.392,-0.254 0.41,-0.231C0.427,-0.208 0.436,-0.18 0.436,-0.146C0.436,-0.095 0.417,-0.055 0.379,-0.028C0.34,0 0.292,0.014 0.235,0.014C0.132,0.014 0.062,-0.026 0.025,-0.105L0.137,-0.168C0.152,-0.125 0.184,-0.103 0.235,-0.103C0.281,-0.103 0.304,-0.117 0.304,-0.146C0.304,-0.159 0.295,-0.17 0.278,-0.179C0.26,-0.187 0.238,-0.194 0.213,-0.201C0.188,-0.208 0.162,-0.216 0.137,-0.226C0.112,-0.236 0.09,-0.252 0.073,-0.274C0.055,-0.295 0.046,-0.322 0.046,-0.355C0.046,-0.404 0.064,-0.443 0.101,-0.472C0.137,-0.5 0.182,-0.514 0.236,-0.514C0.277,-0.514 0.314,-0.505 0.347,-0.487C0.38,-0.468 0.407,-0.442 0.426,-0.408L0.316,-0.348C0.3,-0.382 0.273,-0.399 0.236,-0.399C0.219,-0.399 0.206,-0.395 0.195,-0.388C0.184,-0.381 0.178,-0.371 0.178,-0.358Z" style="fill:rgb(50,148,211);fill-rule:nonzero;"/>
            </g>
            <g transform="matrix(26,0,0,26,43.836,0)">
                <path d="M0.345,-0.376L0.232,-0.376L0.232,-0.168C0.232,-0.151 0.236,-0.138 0.245,-0.13C0.254,-0.122 0.266,-0.118 0.283,-0.117C0.3,-0.116 0.32,-0.116 0.345,-0.117L0.345,-0C0.256,0.01 0.194,0.002 0.158,-0.025C0.121,-0.052 0.103,-0.099 0.103,-0.168L0.103,-0.376L0.016,-0.376L0.016,-0.5L0.103,-0.5L0.103,-0.601L0.232,-0.64L0.232,-0.5L0.345,-0.5L0.345,-0.376Z" style="fill:rgb(50,148,211);fill-rule:nonzero;"/>
            </g>
            <g transform="matrix(26,0,0,26,53.846,0)">
                <path d="M0.188,-0.414C0.2,-0.446 0.22,-0.47 0.248,-0.486C0.275,-0.502 0.306,-0.51 0.34,-0.51L0.34,-0.366C0.301,-0.371 0.266,-0.363 0.235,-0.342C0.204,-0.321 0.188,-0.287 0.188,-0.239L0.188,-0L0.059,-0L0.059,-0.5L0.188,-0.5L0.188,-0.414Z" style="fill:rgb(50,148,211);fill-rule:nonzero;"/>
            </g>
            <g transform="matrix(26,0,0,26,62.608,0)">
                <path d="M0.439,-0.5L0.568,-0.5L0.568,-0L0.439,-0L0.439,-0.059C0.4,-0.01 0.346,0.014 0.276,0.014C0.209,0.014 0.152,-0.012 0.105,-0.063C0.057,-0.114 0.033,-0.176 0.033,-0.25C0.033,-0.324 0.057,-0.387 0.105,-0.438C0.152,-0.489 0.209,-0.514 0.276,-0.514C0.346,-0.514 0.4,-0.49 0.439,-0.441L0.439,-0.5ZM0.201,-0.148C0.227,-0.122 0.26,-0.109 0.3,-0.109C0.34,-0.109 0.373,-0.122 0.4,-0.149C0.426,-0.175 0.439,-0.209 0.439,-0.25C0.439,-0.291 0.426,-0.325 0.4,-0.352C0.373,-0.378 0.34,-0.391 0.3,-0.391C0.26,-0.391 0.227,-0.378 0.201,-0.352C0.175,-0.325 0.162,-0.291 0.162,-0.25C0.162,-0.209 0.175,-0.175 0.201,-0.148Z" style="fill:rgb(50,148,211);fill-rule:nonzero;"/>
            </g>
            <g transform="matrix(26,0,0,26,78.884,0)">
                <path d="M0.297,0.014C0.222,0.014 0.159,-0.011 0.109,-0.062C0.058,-0.113 0.033,-0.175 0.033,-0.25C0.033,-0.325 0.058,-0.387 0.109,-0.438C0.159,-0.489 0.222,-0.514 0.297,-0.514C0.346,-0.514 0.39,-0.502 0.43,-0.479C0.47,-0.456 0.5,-0.424 0.521,-0.385L0.41,-0.32C0.4,-0.341 0.385,-0.357 0.365,-0.369C0.344,-0.381 0.321,-0.387 0.296,-0.387C0.257,-0.387 0.225,-0.374 0.2,-0.349C0.175,-0.323 0.162,-0.29 0.162,-0.25C0.162,-0.211 0.175,-0.178 0.2,-0.153C0.225,-0.127 0.257,-0.114 0.296,-0.114C0.322,-0.114 0.345,-0.12 0.366,-0.132C0.386,-0.143 0.401,-0.159 0.411,-0.18L0.523,-0.116C0.501,-0.077 0.47,-0.045 0.43,-0.022C0.39,0.002 0.346,0.014 0.297,0.014Z" style="fill:rgb(50,148,211);fill-rule:nonzero;"/>
            </g>
            <g transform="matrix(26,0,0,26,92.716,0)">
                <path d="M0.345,-0.376L0.232,-0.376L0.232,-0.168C0.232,-0.151 0.236,-0.138 0.245,-0.13C0.254,-0.122 0.266,-0.118 0.283,-0.117C0.3,-0.116 0.32,-0.116 0.345,-0.117L0.345,-0C0.256,0.01 0.194,0.002 0.158,-0.025C0.121,-0.052 0.103,-0.099 0.103,-0.168L0.103,-0.376L0.016,-0.376L0.016,-0.5L0.103,-0.5L0.103,-0.601L0.232,-0.64L0.232,-0.5L0.345,-0.5L0.345,-0.376Z" style="fill:rgb(50,148,211);fill-rule:nonzero;"/>
            </g>
            <g transform="matrix(26,0,0,26,109.226,0)">
                <path d="M0.297,0.014C0.222,0.014 0.159,-0.011 0.109,-0.062C0.058,-0.113 0.033,-0.175 0.033,-0.25C0.033,-0.325 0.058,-0.387 0.109,-0.438C0.159,-0.489 0.222,-0.514 0.297,-0.514C0.346,-0.514 0.39,-0.502 0.43,-0.479C0.47,-0.456 0.5,-0.424 0.521,-0.385L0.41,-0.32C0.4,-0.341 0.385,-0.357 0.365,-0.369C0.344,-0.381 0.321,-0.387 0.296,-0.387C0.257,-0.387 0.225,-0.374 0.2,-0.349C0.175,-0.323 0.162,-0.29 0.162,-0.25C0.162,-0.211 0.175,-0.178 0.2,-0.153C0.225,-0.127 0.257,-0.114 0.296,-0.114C0.322,-0.114 0.345,-0.12 0.366,-0.132C0.386,-0.143 0.401,-0.159 0.411,-0.18L0.523,-0.116C0.501,-0.077 0.47,-0.045 0.43,-0.022C0.39,0.002 0.346,0.014 0.297,0.014Z" style="fill:rgb(50,148,211);fill-rule:nonzero;"/>
            </g>
            <g transform="matrix(26,0,0,26,123.058,0)">
                <rect x="0.059" y="-0.73" width="0.129" height="0.73" style="fill:rgb(50,148,211);fill-rule:nonzero;"/>
            </g>
            <g transform="matrix(26,0,0,26,129.48,0)">
                <path d="M0.439,-0.5L0.568,-0.5L0.568,-0L0.439,-0L0.439,-0.059C0.4,-0.01 0.346,0.014 0.276,0.014C0.209,0.014 0.152,-0.012 0.105,-0.063C0.057,-0.114 0.033,-0.176 0.033,-0.25C0.033,-0.324 0.057,-0.387 0.105,-0.438C0.152,-0.489 0.209,-0.514 0.276,-0.514C0.346,-0.514 0.4,-0.49 0.439,-0.441L0.439,-0.5ZM0.201,-0.148C0.227,-0.122 0.26,-0.109 0.3,-0.109C0.34,-0.109 0.373,-0.122 0.4,-0.149C0.426,-0.175 0.439,-0.209 0.439,-0.25C0.439,-0.291 0.426,-0.325 0.4,-0.352C0.373,-0.378 0.34,-0.391 0.3,-0.391C0.26,-0.391 0.227,-0.378 0.201,-0.352C0.175,-0.325 0.162,-0.291 0.162,-0.25C0.162,-0.209 0.175,-0.175 0.201,-0.148Z" style="fill:rgb(50,148,211);fill-rule:nonzero;"/>
            </g>
            <g transform="matrix(26,0,0,26,145.652,0)">
                <path d="M0.178,-0.358C0.178,-0.345 0.187,-0.334 0.205,-0.326C0.222,-0.317 0.244,-0.31 0.269,-0.304C0.294,-0.297 0.32,-0.289 0.345,-0.28C0.37,-0.27 0.392,-0.254 0.41,-0.231C0.427,-0.208 0.436,-0.18 0.436,-0.146C0.436,-0.095 0.417,-0.055 0.379,-0.028C0.34,0 0.292,0.014 0.235,0.014C0.132,0.014 0.062,-0.026 0.025,-0.105L0.137,-0.168C0.152,-0.125 0.184,-0.103 0.235,-0.103C0.281,-0.103 0.304,-0.117 0.304,-0.146C0.304,-0.159 0.295,-0.17 0.278,-0.179C0.26,-0.187 0.238,-0.194 0.213,-0.201C0.188,-0.208 0.162,-0.216 0.137,-0.226C0.112,-0.236 0.09,-0.252 0.073,-0.274C0.055,-0.295 0.046,-0.322 0.046,-0.355C0.046,-0.404 0.064,-0.443 0.101,-0.472C0.137,-0.5 0.182,-0.514 0.236,-0.514C0.277,-0.514 0.314,-0.505 0.347,-0.487C0.38,-0.468 0.407,-0.442 0.426,-0.408L0.316,-0.348C0.3,-0.382 0.273,-0.399 0.236,-0.399C0.219,-0.399 0.206,-0.395 0.195,-0.388C0.184,-0.381 0.178,-0.371 0.178,-0.358Z" style="fill:rgb(50,148,211);fill-rule:nonzero;"/>
            </g>
            <g transform="matrix(26,0,0,26,156.936,0)">
                <path d="M0.178,-0.358C0.178,-0.345 0.187,-0.334 0.205,-0.326C0.222,-0.317 0.244,-0.31 0.269,-0.304C0.294,-0.297 0.32,-0.289 0.345,-0.28C0.37,-0.27 0.392,-0.254 0.41,-0.231C0.427,-0.208 0.436,-0.18 0.436,-0.146C0.436,-0.095 0.417,-0.055 0.379,-0.028C0.34,0 0.292,0.014 0.235,0.014C0.132,0.014 0.062,-0.026 0.025,-0.105L0.137,-0.168C0.152,-0.125 0.184,-0.103 0.235,-0.103C0.281,-0.103 0.304,-0.117 0.304,-0.146C0.304,-0.159 0.295,-0.17 0.278,-0.179C0.26,-0.187 0.238,-0.194 0.213,-0.201C0.188,-0.208 0.162,-0.216 0.137,-0.226C0.112,-0.236 0.09,-0.252 0.073,-0.274C0.055,-0.295 0.046,-0.322 0.046,-0.355C0.046,-0.404 0.064,-0.443 0.101,-0.472C0.137,-0.5 0.182,-0.514 0.236,-0.514C0.277,-0.514 0.314,-0.505 0.347,-0.487C0.38,-0.468 0.407,-0.442 0.426,-0.408L0.316,-0.348C0.3,-0.382 0.273,-0.399 0.236,-0.399C0.219,-0.399 0.206,-0.395 0.195,-0.388C0.184,-0.381 0.178,-0.371 0.178,-0.358Z" style="fill:rgb(50,148,211);fill-rule:nonzero;"/>
            </g>
        </g>
        <g id="Rectangle1" serif:id="Rectangle" transform="matrix(1,0,0,1,118,434)">
            <path d="M108,16C108,7.169 100.831,0 92,0L16,0C7.169,0 0,7.169 0,16L0,26C0,34.831 7.169,42 16,42L92,42C100.831,42 108,34.831 108,26L108,16Z" style="fill:rgb(28,28,28);"/>
        </g>
        <g transform="matrix(1,0,0,1,141.6,463.5)">
            <g transform="matrix(26,0,0,26,0,0)">
                <path d="M0.297,0.014C0.222,0.014 0.159,-0.011 0.109,-0.062C0.058,-0.113 0.033,-0.175 0.033,-0.25C0.033,-0.325 0.058,-0.387 0.109,-0.438C0.159,-0.489 0.222,-0.514 0.297,-0.514C0.346,-0.514 0.39,-0.502 0.43,-0.479C0.47,-0.456 0.5,-0.424 0.521,-0.385L0.41,-0.32C0.4,-0.341 0.385,-0.357 0.365,-0.369C0.344,-0.381 0.321,-0.387 0.296,-0.387C0.257,-0.387 0.225,-0.374 0.2,-0.349C0.175,-0.323 0.162,-0.29 0.162,-0.25C0.162,-0.211 0.175,-0.178 0.2,-0.153C0.225,-0.127 0.257,-0.114 0.296,-0.114C0.322,-0.114 0.345,-0.12 0.366,-0.132C0.386,-0.143 0.401,-0.159 0.411,-0.18L0.523,-0.116C0.501,-0.077 0.47,-0.045 0.43,-0.022C0.39,0.002 0.346,0.014 0.297,0.014Z" style="fill:rgb(50,148,211);fill-rule:nonzero;"/>
            </g>
            <g transform="matrix(26,0,0,26,13.832,0)">
                <rect x="0.059" y="-0.73" width="0.129" height="0.73" style="fill:rgb(50,148,211);fill-rule:nonzero;"/>
            </g>
            <g transform="matrix(26,0,0,26,20.254,0)">
                <path d="M0.439,-0.5L0.568,-0.5L0.568,-0L0.439,-0L0.439,-0.059C0.4,-0.01 0.346,0.014 0.276,0.014C0.209,0.014 0.152,-0.012 0.105,-0.063C0.057,-0.114 0.033,-0.176 0.033,-0.25C0.033,-0.324 0.057,-0.387 0.105,-0.438C0.152,-0.489 0.209,-0.514 0.276,-0.514C0.346,-0.514 0.4,-0.49 0.439,-0.441L0.439,-0.5ZM0.201,-0.148C0.227,-0.122 0.26,-0.109 0.3,-0.109C0.34,-0.109 0.373,-0.122 0.4,-0.149C0.426,-0.175 0.439,-0.209 0.439,-0.25C0.439,-0.291 0.426,-0.325 0.4,-0.352C0.373,-0.378 0.34,-0.391 0.3,-0.391C0.26,-0.391 0.227,-0.378 0.201,-0.352C0.175,-0.325 0.162,-0.291 0.162,-0.25C0.162,-0.209 0.175,-0.175 0.201,-0.148Z" style="fill:rgb(50,148,211);fill-rule:nonzero;"/>
            </g>
            <g transform="matrix(26,0,0,26,36.426,0)">
                <path d="M0.178,-0.358C0.178,-0.345 0.187,-0.334 0.205,-0.326C0.222,-0.317 0.244,-0.31 0.269,-0.304C0.294,-0.297 0.32,-0.289 0.345,-0.28C0.37,-0.27 0.392,-0.254 0.41,-0.231C0.427,-0.208 0.436,-0.18 0.436,-0.146C0.436,-0.095 0.417,-0.055 0.379,-0.028C0.34,0 0.292,0.014 0.235,0.014C0.132,0.014 0.062,-0.026 0.025,-0.105L0.137,-0.168C0.152,-0.125 0.184,-0.103 0.235,-0.103C0.281,-0.103 0.304,-0.117 0.304,-0.146C0.304,-0.159 0.295,-0.17 0.278,-0.179C0.26,-0.187 0.238,-0.194 0.213,-0.201C0.188,-0.208 0.162,-0.216 0.137,-0.226C0.112,-0.236 0.09,-0.252 0.073,-0.274C0.055,-0.295 0.046,-0.322 0.046,-0.355C0.046,-0.404 0.064,-0.443 0.101,-0.472C0.137,-0.5 0.182,-0.514 0.236,-0.514C0.277,-0.514 0.314,-0.505 0.347,-0.487C0.38,-0.468 0.407,-0.442 0.426,-0.408L0.316,-0.348C0.3,-0.382 0.273,-0.399 0.236,-0.399C0.219,-0.399 0.206,-0.395 0.195,-0.388C0.184,-0.381 0.178,-0.371 0.178,-0.358Z" style="fill:rgb(50,148,211);fill-rule:nonzero;"/>
            </g>
            <g transform="matrix(26,0,0,26,47.71,0)">
                <path d="M0.178,-0.358C0.178,-0.345 0.187,-0.334 0.205,-0.326C0.222,-0.317 0.244,-0.31 0.269,-0.304C0.294,-0.297 0.32,-0.289 0.345,-0.28C0.37,-0.27 0.392,-0.254 0.41,-0.231C0.427,-0.208 0.436,-0.18 0.436,-0.146C0.436,-0.095 0.417,-0.055 0.379,-0.028C0.34,0 0.292,0.014 0.235,0.014C0.132,0.014 0.062,-0.026 0.025,-0.105L0.137,-0.168C0.152,-0.125 0.184,-0.103 0.235,-0.103C0.281,-0.103 0.304,-0.117 0.304,-0.146C0.304,-0.159 0.295,-0.17 0.278,-0.179C0.26,-0.187 0.238,-0.194 0.213,-0.201C0.188,-0.208 0.162,-0.216 0.137,-0.226C0.112,-0.236 0.09,-0.252 0.073,-0.274C0.055,-0.295 0.046,-0.322 0.046,-0.355C0.046,-0.404 0.064,-0.443 0.101,-0.472C0.137,-0.5 0.182,-0.514 0.236,-0.514C0.277,-0.514 0.314,-0.505 0.347,-0.487C0.38,-0.468 0.407,-0.442 0.426,-0.408L0.316,-0.348C0.3,-0.382 0.273,-0.399 0.236,-0.399C0.219,-0.399 0.206,-0.395 0.195,-0.388C0.184,-0.381 0.178,-0.371 0.178,-0.358Z" style="fill:rgb(50,148,211);fill-rule:nonzero;"/>
            </g>
        </g>
        <g id="Rectangle2" serif:id="Rectangle" transform="matrix(1,0,0,1,633,434)">
            <path d="M108,16C108,7.169 100.831,0 92,0L16,0C7.169,0 0,7.169 0,16L0,26C0,34.831 7.169,42 16,42L92,42C100.831,42 108,34.831 108,26L108,16Z" style="fill:rgb(28,28,28);"/>
        </g>
        <g transform="matrix(1,0,0,1,656.6,463.5)">
            <g transform="matrix(26,0,0,26,0,0)">
                <path d="M0.297,0.014C0.222,0.014 0.159,-0.011 0.109,-0.062C0.058,-0.113 0.033,-0.175 0.033,-0.25C0.033,-0.325 0.058,-0.387 0.109,-0.438C0.159,-0.489 0.222,-0.514 0.297,-0.514C0.346,-0.514 0.39,-0.502 0.43,-0.479C0.47,-0.456 0.5,-0.424 0.521,-0.385L0.41,-0.32C0.4,-0.341 0.385,-0.357 0.365,-0.369C0.344,-0.381 0.321,-0.387 0.296,-0.387C0.257,-0.387 0.225,-0.374 0.2,-0.349C0.175,-0.323 0.162,-0.29 0.162,-0.25C0.162,-0.211 0.175,-0.178 0.2,-0.153C0.225,-0.127 0.257,-0.114 0.296,-0.114C0.322,-0.114 0.345,-0.12 0.366,-0.132C0.386,-0.143 0.401,-0.159 0.411,-0.18L0.523,-0.116C0.501,-0.077 0.47,-0.045 0.43,-0.022C0.39,0.002 0.346,0.014 0.297,0.014Z" style="fill:rgb(50,148,211);fill-rule:nonzero;"/>
            </g>
            <g transform="matrix(26,0,0,26,13.832,0)">
                <rect x="0.059" y="-0.73" width="0.129" height="0.73" style="fill:rgb(50,148,211);fill-rule:nonzero;"/>
            </g>
            <g transform="matrix(26,0,0,26,20.254,0)">
                <path d="M0.439,-0.5L0.568,-0.5L0.568,-0L0.439,-0L0.439,-0.059C0.4,-0.01 0.346,0.014 0.276,0.014C0.209,0.014 0.152,-0.012 0.105,-0.063C0.057,-0.114 0.033,-0.176 0.033,-0.25C0.033,-0.324 0.057,-0.387 0.105,-0.438C0.152,-0.489 0.209,-0.514 0.276,-0.514C0.346,-0.514 0.4,-0.49 0.439,-0.441L0.439,-0.5ZM0.201,-0.148C0.227,-0.122 0.26,-0.109 0.3,-0.109C0.34,-0.109 0.373,-0.122 0.4,-0.149C0.426,-0.175 0.439,-0.209 0.439,-0.25C0.439,-0.291 0.426,-0.325 0.4,-0.352C0.373,-0.378 0.34,-0.391 0.3,-0.391C0.26,-0.391 0.227,-0.378 0.201,-0.352C0.175,-0.325 0.162,-0.291 0.162,-0.25C0.162,-0.209 0.175,-0.175 0.201,-0.148Z" style="fill:rgb(50,148,211);fill-rule:nonzero;"/>
            </g>
            <g transform="matrix(26,0,0,26,36.426,0)">
                <path d="M0.178,-0.358C0.178,-0.345 0.187,-0.334 0.205,-0.326C0.222,-0.317 0.244,-0.31 0.269,-0.304C0.294,-0.297 0.32,-0.289 0.345,-0.28C0.37,-0.27 0.392,-0.254 0.41,-0.231C0.427,-0.208 0.436,-0.18 0.436,-0.146C0.436,-0.095 0.417,-0.055 0.379,-0.028C0.34,0 0.292,0.014 0.235,0.014C0.132,0.014 0.062,-0.026 0.025,-0.105L0.137,-0.168C0.152,-0.125 0.184,-0.103 0.235,-0.103C0.281,-0.103 0.304,-0.117 0.304,-0.146C0.304,-0.159 0.295,-0.17 0.278,-0.179C0.26,-0.187 0.238,-0.194 0.213,-0.201C0.188,-0.208 0.162,-0.216 0.137,-0.226C0.112,-0.236 0.09,-0.252 0.073,-0.274C0.055,-0.295 0.046,-0.322 0.046,-0.355C0.046,-0.404 0.064,-0.443 0.101,-0.472C0.137,-0.5 0.182,-0.514 0.236,-0.514C0.277,-0.514 0.314,-0.505 0.347,-0.487C0.38,-0.468 0.407,-0.442 0.426,-0.408L0.316,-0.348C0.3,-0.382 0.273,-0.399 0.236,-0.399C0.219,-0.399 0.206,-0.395 0.195,-0.388C0.184,-0.381 0.178,-0.371 0.178,-0.358Z" style="fill:rgb(50,148,211);fill-rule:nonzero;"/>
            </g>
            <g transform="matrix(26,0,0,26,47.71,0)">
                <path d="M0.178,-0.358C0.178,-0.345 0.187,-0.334 0.205,-0.326C0.222,-0.317 0.244,-0.31 0.269,-0.304C0.294,-0.297 0.32,-0.289 0.345,-0.28C0.37,-0.27 0.392,-0.254 0.41,-0.231C0.427,-0.208 0.436,-0.18 0.436,-0.146C0.436,-0.095 0.417,-0.055 0.379,-0.028C0.34,0 0.292,0.014 0.235,0.014C0.132,0.014 0.062,-0.026 0.025,-0.105L0.137,-0.168C0.152,-0.125 0.184,-0.103 0.235,-0.103C0.281,-0.103 0.304,-0.117 0.304,-0.146C0.304,-0.159 0.295,-0.17 0.278,-0.179C0.26,-0.187 0.238,-0.194 0.213,-0.201C0.188,-0.208 0.162,-0.216 0.137,-0.226C0.112,-0.236 0.09,-0.252 0.073,-0.274C0.055,-0.295 0.046,-0.322 0.046,-0.355C0.046,-0.404 0.064,-0.443 0.101,-0.472C0.137,-0.5 0.182,-0.514 0.236,-0.514C0.277,-0.514 0.314,-0.505 0.347,-0.487C0.38,-0.468 0.407,-0.442 0.426,-0.408L0.316,-0.348C0.3,-0.382 0.273,-0.399 0.236,-0.399C0.219,-0.399 0.206,-0.395 0.195,-0.388C0.184,-0.381 0.178,-0.371 0.178,-0.358Z" style="fill:rgb(50,148,211);fill-rule:nonzero;"/>
            </g>
        </g>
        <g id="Path" transform="matrix(1,0,0,1,521,129)">
            <path d="M286,3L286,28C286,39.046 277.053,48 265.991,48L27.009,48C15.958,48 7,56.944 7,68L7,93" style="fill:none;stroke:rgb(50,148,211);stroke-opacity:0.38;stroke-width:2px;"/>
        </g>
        <g id="Oval" transform="matrix(1,0,0,1,521,129)">
            <path d="M281,5C281,7.761 283.239,10 286,10C288.761,10 291,7.761 291,5C291,2.239 288.761,-0 286,0C283.239,0 281,2.239 281,5Z" style="fill:rgb(37,123,244);"/>
        </g>
        <g id="Oval1" serif:id="Oval" transform="matrix(1,0,0,1,521,129)">
            <path d="M2,91C2,93.761 4.239,96 7,96C9.761,96 12,93.761 12,91C12,88.239 9.761,86 7,86C4.239,86 2,88.239 2,91Z" style="fill:rgb(37,123,244);"/>
        </g>
        <g id="Path1" serif:id="Path" transform="matrix(1,0,0,1,244,317)">
            <path d="M286,3L286,28C286,39.046 277.053,48 265.991,48L27.009,48C15.958,48 7,56.944 7,68L7,93" style="fill:none;stroke:rgb(50,148,211);stroke-opacity:0.38;stroke-width:2px;"/>
        </g>
        <g id="Oval2" serif:id="Oval" transform="matrix(1,0,0,1,244,317)">
            <path d="M281,5C281,7.761 283.239,10 286,10C288.761,10 291,7.761 291,5C291,2.239 288.761,-0 286,0C283.239,0 281,2.239 281,5Z" style="fill:rgb(37,123,244);"/>
        </g>
        <g id="Oval3" serif:id="Oval" transform="matrix(1,0,0,1,244,317)">
            <path d="M2,91C2,93.761 4.239,96 7,96C9.761,96 12,93.761 12,91C12,88.239 9.761,86 7,86C4.239,86 2,88.239 2,91Z" style="fill:rgb(37,123,244);"/>
        </g>
        <g id="Path2" serif:id="Path" transform="matrix(-1,0,0,1,1093,129)">
            <path d="M286,3L286,28C286,39.046 277.053,48 265.991,48L27.009,48C15.958,48 7,56.944 7,68L7,93" style="fill:none;stroke:rgb(50,148,211);stroke-opacity:0.38;stroke-width:2px;"/>
        </g>
        <g id="Oval4" serif:id="Oval" transform="matrix(-1,0,0,1,1093,129)">
            <path d="M281,5C281,7.761 283.239,10 286,10C288.761,10 291,7.761 291,5C291,2.239 288.761,-0 286,0C283.239,0 281,2.239 281,5Z" style="fill:rgb(37,123,244);"/>
        </g>
        <g id="Oval5" serif:id="Oval" transform="matrix(-1,0,0,1,1093,129)">
            <path d="M2,91C2,93.761 4.239,96 7,96C9.761,96 12,93.761 12,91C12,88.239 9.761,86 7,86C4.239,86 2,88.239 2,91Z" style="fill:rgb(37,123,244);"/>
        </g>
        <g id="Path3" serif:id="Path" transform="matrix(-1,0,0,1,816,317)">
            <path d="M286,3L286,28C286,39.046 277.053,48 265.991,48L27.009,48C15.958,48 7,56.944 7,68L7,93" style="fill:none;stroke:rgb(50,148,211);stroke-opacity:0.38;stroke-width:2px;"/>
        </g>
        <g id="Oval6" serif:id="Oval" transform="matrix(-1,0,0,1,816,317)">
            <path d="M281,5C281,7.761 283.239,10 286,10C288.761,10 291,7.761 291,5C291,2.239 288.761,-0 286,0C283.239,0 281,2.239 281,5Z" style="fill:rgb(37,123,244);"/>
        </g>
        <g id="Oval7" serif:id="Oval" transform="matrix(-1,0,0,1,816,317)">
            <path d="M2,91C2,93.761 4.239,96 7,96C9.761,96 12,93.761 12,91C12,88.239 9.761,86 7,86C4.239,86 2,88.239 2,91Z" style="fill:rgb(37,123,244);"/>
        </g>
    </g>
</svg>
