<?xml version="1.0" encoding="UTF-8" standalone="no"?>
<!DOCTYPE svg PUBLIC "-//W3C//DTD SVG 1.1//EN" "http://www.w3.org/Graphics/SVG/1.1/DTD/svg11.dtd">
<svg width="100%" height="100%" viewBox="0 0 22 23" version="1.1" xmlns="http://www.w3.org/2000/svg" xmlns:xlink="http://www.w3.org/1999/xlink" xml:space="preserve" xmlns:serif="http://www.serif.com/" style="fill-rule:evenodd;clip-rule:evenodd;stroke-linejoin:round;stroke-miterlimit:2;">
    <g transform="matrix(0.0449219,0,0,0.0449219,0.938006,0)">
        <g id="Symbols">
            <path d="M256,32L256,49.88C328.5,61.39 384,124.2 384,200L384,233.4C384,278.8 399.5,322.9 427.8,358.4L442.7,377C448.5,384.2 449.6,394.1 445.6,402.4C441.6,410.7 433.2,416 424,416L24,416C14.77,416 6.365,410.7 2.369,402.4C-1.628,394.1 -0.504,384.2 5.26,377L20.17,358.4C48.54,322.9 64,278.8 64,233.4L64,200C64,124.2 119.5,61.39 192,49.88L192,32C192,14.33 206.3,0 224,0C241.7,0 256,14.33 256,32ZM216,96C158.6,96 112,142.6 112,200L112,233.4C112,281.3 98.12,328 72.31,368L375.7,368C349.9,328 336,281.3 336,233.4L336,200C336,142.6 289.4,96 232,96L216,96ZM288,448C288,464.1 281.3,481.3 269.3,493.3C257.3,505.3 240.1,512 224,512C207,512 190.7,505.3 178.7,493.3C166.7,481.3 160,464.1 160,448L288,448Z" style="fill-rule:nonzero;"/>
        </g>
    </g>
</svg>
