<?xml version="1.0" encoding="UTF-8"?>
<svg width="24px" height="23px" viewBox="0 0 24 23" version="1.1" xmlns="http://www.w3.org/2000/svg" xmlns:xlink="http://www.w3.org/1999/xlink">
    <title>Group 19</title>
    <g id="13-|-ДШП" stroke="none" stroke-width="1" fill="none" fill-rule="evenodd">
        <g id="Group-19">
            <rect id="Rectangle" x="0" y="0" width="24" height="23"></rect>
            <path d="M11.94,0 C7.00489519,0.00559472736 3.00559854,4.00217061 3,8.93391802 C3,16.5785092 11.1272727,22.3550994 11.4726818,22.5987517 C11.7557267,22.7870828 12.1242733,22.7870828 12.4073182,22.5987517 C12.7527273,22.3550994 20.88,16.5785092 20.88,8.93391802 C20.8744015,4.00217061 16.8751048,0.00559472736 11.94,0 Z M11.94,5.68522056 C13.7354275,5.68522056 15.1909091,7.13971196 15.1909091,8.93391802 C15.1909091,10.7281241 13.7354275,12.1826155 11.94,12.1826155 C10.1445725,12.1826155 8.68909091,10.7281241 8.68909091,8.93391802 C8.68909091,7.13971196 10.1445725,5.68522056 11.94,5.68522056 Z" id="Shape-Copy-2" fill="#000000" fill-rule="nonzero"></path>
        </g>
    </g>
</svg>