<?xml version="1.0" encoding="UTF-8"?>
<svg width="9px" height="11px" viewBox="0 0 9 11" version="1.1" xmlns="http://www.w3.org/2000/svg" xmlns:xlink="http://www.w3.org/1999/xlink">
    <title>5340287_man_people_person_user_users_icon</title>
    <g id="13-|-ДШП" stroke="none" stroke-width="1" fill="none" fill-rule="evenodd">
        <g id="IPhone-11-pro-Copy-11" transform="translate(-299.000000, -183.000000)" fill="#000000" fill-rule="nonzero">
            <g id="Group-2-Copy" transform="translate(279.000000, 174.000000)">
                <g id="Group" transform="translate(20.000000, 6.000000)">
                    <g id="5340287_man_people_person_user_users_icon" transform="translate(0.000000, 3.000000)">
                        <path d="M7.66635411,5.57615385 C7.56258517,5.46959251 7.4117285,5.42837875 7.27061034,5.46803741 C7.12949219,5.50769606 7.01955176,5.62220204 6.98220256,5.76842203 C6.94485335,5.91464203 6.9857696,6.07036175 7.08953855,6.17692308 C7.78873137,6.89236669 8.18205307,7.86739697 8.18180631,8.88461538 C8.18180631,9.40076923 6.74590375,10.1538462 4.5,10.1538462 C2.25410603,10.1538462 0.818203477,9.40076923 0.818203477,8.88461538 C0.81689264,7.87423413 1.20393615,6.90474052 1.89410767,6.18961538 C2.05272114,6.02459954 2.05272114,5.75809277 1.89410767,5.59307692 C1.73454762,5.42904002 1.47685216,5.42904002 1.31729211,5.59307692 C0.470399695,6.46403195 -0.0039980437,7.64943987 0,8.88461538 C0,10.2596154 2.31956028,11 4.5,11 C6.68044951,11 9,10.2596154 9,8.88461538 C9.00315639,7.64131095 8.52252591,6.44896591 7.66635411,5.57615385 Z" id="Path"></path>
                        <path d="M4.50000489,5.92307692 C6.08154038,5.92307692 7.36362821,4.59715099 7.36362821,2.96153846 C7.36362821,1.32592593 6.08154038,0 4.50000489,0 C2.9184694,0 1.63638157,1.32592593 1.63638157,2.96153846 C1.63638157,4.59715099 2.9184694,5.92307692 4.50000489,5.92307692 Z M4.50000489,0.846153846 C5.6296731,0.846153846 6.54545012,1.7932438 6.54545012,2.96153846 C6.54545012,4.12983312 5.6296731,5.07692308 4.50000489,5.07692308 C3.37033668,5.07692308 2.45455966,4.12983312 2.45455966,2.96153846 C2.45455966,1.7932438 3.37033668,0.846153846 4.50000489,0.846153846 Z" id="Shape"></path>
                    </g>
                </g>
            </g>
        </g>
    </g>
</svg>